<svg xmlns="http://www.w3.org/2000/svg" width="32" height="32"><path d="M 0 0 L 32 0 L 32 32 L 0 32 Z" fill="transparent"></path><path d="M 12 16 C 12 13.791 13.791 12 16 12 C 18.209 12 20 13.791 20 16 C 20 18.209 18.209 20 16 20 C 13.791 20 12 18.209 12 16 Z" fill="#532B88"></path><path d="M 21.5 3.5 L 10.5 3.5 C 6.634 3.5 3.5 6.634 3.5 10.5 L 3.5 21.5 C 3.5 25.366 6.634 28.5 10.5 28.5 L 21.5 28.5 C 25.366 28.5 28.5 25.366 28.5 21.5 L 28.5 10.5 C 28.5 6.634 25.366 3.5 21.5 3.5 Z M 16 22 C 12.686 22 10 19.314 10 16 C 10 12.686 12.686 10 16 10 C 19.314 10 22 12.686 22 16 C 22 19.314 19.314 22 16 22 Z M 22.5 11 C 21.672 11 21 10.328 21 9.5 C 21 8.672 21.672 8 22.5 8 C 23.328 8 24 8.672 24 9.5 C 24 10.328 23.328 11 22.5 11 Z" fill="#532B88"></path></svg>