<svg xmlns="http://www.w3.org/2000/svg" width="32" height="32"><path d="M 26 4 L 6 4 C 4.895 4 4 4.895 4 6 L 4 24 C 4 25.105 4.895 26 6 26 L 8 26 L 8 30 C 8 30.388 8.224 30.741 8.576 30.906 C 8.927 31.071 9.342 31.017 9.64 30.769 L 15.363 26 L 20.638 26 C 21.106 26 21.559 25.836 21.919 25.536 L 27.28 21.067 C 27.737 20.688 28.001 20.125 28 19.531 L 28 6 C 28 4.895 27.105 4 26 4 Z M 16 17 C 16 17.552 15.552 18 15 18 C 14.448 18 14 17.552 14 17 L 14 11 C 14 10.448 14.448 10 15 10 C 15.552 10 16 10.448 16 11 Z M 22 17 C 22 17.552 21.552 18 21 18 C 20.448 18 20 17.552 20 17 L 20 11 C 20 10.448 20.448 10 21 10 C 21.552 10 22 10.448 22 11 Z" fill="#532B88"></path></svg>