<svg xmlns="http://www.w3.org/2000/svg" width="32" height="32"><path d="M 0 0 L 32 0 L 32 32 L 0 32 Z" fill="transparent"></path><path d="M 30.713 9.712 L 26.938 13.475 C 26.188 22.212 18.813 29 10 29 C 8.188 29 6.688 28.712 5.55 28.15 C 4.638 27.687 4.263 27.2 4.163 27.05 C 3.995 26.795 3.953 26.478 4.047 26.189 C 4.142 25.899 4.364 25.668 4.65 25.562 C 4.675 25.55 7.625 24.425 9.538 22.262 C 8.351 21.418 7.309 20.388 6.45 19.212 C 4.738 16.887 2.925 12.85 4.013 6.825 C 4.082 6.46 4.346 6.163 4.7 6.05 C 5.055 5.934 5.446 6.025 5.713 6.287 C 5.75 6.337 9.913 10.437 15 11.762 L 15 11 C 15.01 9.399 15.656 7.867 16.795 6.742 C 17.934 5.617 19.474 4.99 21.075 5 C 23.192 5.03 25.137 6.169 26.2 8 L 30 8 C 30.404 7.999 30.769 8.24 30.925 8.612 C 31.072 8.989 30.989 9.417 30.713 9.712 Z" fill="#532B88"></path></svg>